<svg width="34" height="27" viewBox="0 0 34 27" fill="none" xmlns="http://www.w3.org/2000/svg">
<path d="M4.8069 11.1682H0L10.5517 0L23.4483 13.5L19.6966 17.4273L17.2345 14.85L18.5241 13.5L10.5517 5.15455L4.8069 11.1682Z" fill="#212121"/>
<path d="M23.4483 0L17.2345 6.50455L19.6966 9.08182L23.4483 5.15455L29.1931 11.1682H34L23.4483 0Z" fill="#212121"/>
<path d="M4.8069 15.8318H0L10.5517 27L16.7655 20.4955L14.3034 17.9182L10.5517 21.8455L4.8069 15.8318Z" fill="#212121"/>
<path d="M14.3034 9.57273L16.7655 12.15L15.4759 13.5L23.4483 21.8455L29.1931 15.8318H34L23.4483 27L10.5517 13.5L14.3034 9.57273Z" fill="#212121"/>
</svg>
